<svg id="a27b99c7-e964-4c47-a10a-750eac27831c" xmlns="http://www.w3.org/2000/svg" width="855.2" height="578.4" viewBox="0 0 855.2 578.4">
  <path d="M763 286c-3 43-22 84-49 119l-3 4-8 9-10 11-9 9-7 7c-29 25-61 46-95 65-66 36-138 64-213 68s-153-18-207-69c-74-69-95-184-65-280 20-64 61-122 116-160s125-55 190-44c53-31 121-32 178-9 31 13 58 32 82 54a344 344 0 0 1 31 34l3 3 11 16 15 23 4 6 3 5a266 266 0 0 1 32 88l2 12a175 175 0 0 1-1 29Z" style="fill:#3f3d56"/>
  <path d="M568 351 420 227l144 129a3 3 0 1 0 4-5Z" style="fill:#f0f0f0;opacity:.30000001192092896;isolation:isolate"/>
  <g id="smallGalax">
    <circle cx="226.8" cy="198.6" r="89" style="fill:#f2f2f2"/>
    <path d="M307 193a81 81 0 1 1-53-76 81 81 0 0 1 53 76Z" style="fill:#fff"/>
    <circle cx="210.8" cy="165.6" r="25" style="fill:#e4e4e4"/>
    <path d="M303 170a25 25 0 0 1-27-41 81 81 0 0 1 27 41Z" style="fill:#f2f2f2"/>
    <circle cx="252.2" cy="219.7" r="9" transform="rotate(-81 252 220)" style="fill:#e4e4e4"/>
    <path d="M216 271a8 8 0 0 1-1 2 82 82 0 0 1-17-4 9 9 0 1 1 18 2Zm-53-82a18 18 0 0 1-17 18 83 83 0 0 1 2-36 18 18 0 0 1 15 18Z" style="fill:#f2f2f2"/>
  </g>
  <g id="stars">
    <circle cx="605.7" cy="156.3" r="3.7" style="fill:#6c63ff"/>
    <circle cx="571.5" cy="67.7" r="2.2" style="fill:#f0f0f0"/>
    <circle cx="224.5" cy="491.7" r="2.2" style="fill:#f0f0f0"/>
    <circle cx="583.8" cy="279.4" r="2.2" style="fill:#f0f0f0"/>
    <circle cx="304.7" cy="298.3" r="3.7" style="fill:#6c63ff"/>
    <circle cx="266.5" cy="383.7" r="2.2" style="fill:#f0f0f0"/>
    <circle cx="486.5" cy="45.7" r="2.2" style="fill:#f0f0f0"/>
    <circle cx="357.5" cy="506.7" r="2.2" style="fill:#f0f0f0"/>
    <circle cx="325.5" cy="65.7" r="2.2" style="fill:#f0f0f0"/>
    <circle cx="381.5" cy="170.7" r="2.2" style="fill:#f0f0f0"/>
    <circle cx="295.8" cy="428.4" r="2.2" style="fill:#f0f0f0"/>
    <circle cx="548.8" cy="442.4" r="2.2" style="fill:#f0f0f0"/>
    <circle cx="436.8" cy="316.4" r="2.2" style="fill:#f0f0f0"/>
    <circle cx="493.8" cy="170.4" r="2.2" style="fill:#f0f0f0"/>
    <circle cx="597.4" cy="240.5" r="4.3" style="fill:#ff6584"/>
    <circle cx="423.4" cy="98.5" r="4.3" style="fill:#ff6584"/>
    <circle cx="423.4" cy="393.5" r="4.3" style="fill:#ff6584"/>
  </g>
  <path d="M691 418a8 8 0 0 0-7 6 7 7 0 0 0 0 2v12l9-9 10-11Z" style="fill:#6c63ff"/>
  <path id="ellipse_1" data-name="ellipse 1" d="m719 481-43-2c-79-5-183-22-290-49s-207-60-280-93c-35-16-62-31-80-45-20-15-28-28-25-38 5-21 50-25 88-25v3c-52 0-82 8-86 23-4 18 34 47 105 79s171 66 279 93 210 44 289 49 125-2 130-21c4-16-22-38-72-64l1-3c37 19 79 46 74 68-3 10-16 18-40 22-14 2-31 3-50 3Z" style="fill:#6c63ff"/>
  <g id="smallGalax2">
    <circle cx="680.9" cy="182.2" r="34.4" style="fill:#fff"/>
    <path d="M682 148a35 35 0 1 0 35 35 35 35 0 0 0-35-35Zm0 68a34 34 0 1 1 34-34 34 34 0 0 1-34 34Z" style="fill:#2f2e41"/>
    <path d="M651 191a1 1 0 0 1 0-1 34 34 0 0 1 8-28 1 1 0 0 1 1 1 32 32 0 0 0-8 27Z" style="fill:#2f2e41"/>
  </g>
  <path d="M717 266h-58a8 8 0 0 0-8 8v128a48 48 0 0 0 26 43l7-7 9-9 10-11 8-9 3-4c27-35 46-76 49-119a64 64 0 0 0-46-20Z" style="fill:#2f2e41"/>
  <path d="M719 293a15 15 0 0 0-10-4 14 14 0 0 0-9 3 5 5 0 0 0-1 1l-48 49-34 35a8 8 0 0 0-1 2 6 6 0 0 0-1 3 7 7 0 0 0 2 5l1 1 10 10a7 7 0 0 0 5 1 7 7 0 0 0 5-2l1-1 12-12 69-71a15 15 0 0 0-1-20Z" style="fill:#6c63ff"/>
  <path id="ellipse_2" data-name="ellipse 2" d="M240 517c-36 0-69-1-98-3-39-4-70-9-91-16-24-7-36-16-37-27-2-21 40-41 75-54l1 3c-49 18-74 35-73 50 2 20 48 34 125 41 79 6 184 4 294-7s213-29 290-51c74-21 116-44 114-64-1-15-33-28-89-36v-3c41 6 90 17 92 39 1 11-9 22-30 34s-49 22-87 33a2037 2037 0 0 1-486 61Z" style="fill:#6c63ff"/>
  <circle id="smallGalax3" cx="529" cy="53.9" r="9.4" style="fill:#e6e6e6"/>
  <circle cx="18.7" cy="381.3" r="17.5" style="fill:#e6e6e6"/>
  <circle cx="87.4" cy="228.9" r="17.5" style="fill:#6c63ff"/>
  <circle cx="837.7" cy="382.3" r="17.5" style="fill:#6c63ff"/>
  <circle cx="126.7" cy="56.3" r="10.7" style="fill:#ff6584"/>
  <circle cx="76.7" cy="462.3" r="10.7" style="fill:#ff6584"/>
  <circle cx="806.7" cy="287.3" r="10.7" style="fill:#ff6584"/>
  <circle cx="644.7" cy="546.3" r="17.5" style="fill:#e6e6e6"/>
</svg>
