<svg id="Globe" xmlns="http://www.w3.org/2000/svg" width="802.8" height="578.4" viewBox="0 0 802.8 578.4">
  <path d="M762 286c-3 43-22 84-49 119l-3 4-8 9-10 11-9 9-7 7c-29 25-61 46-95 65-66 36-138 64-213 68s-153-18-207-69c-74-69-95-184-65-280 20-64 61-122 116-160s125-55 190-44c53-31 121-32 178-9 31 13 58 32 82 54a344 344 0 0 1 31 34l3 3 11 16 15 23 4 6 3 5a266 266 0 0 1 32 88l2 12a175 175 0 0 1-1 29Z" transform="translate(-21.3 0)" style="fill:#3f3d56"/>
  <circle id="circle2" cx="67.6" cy="232.1" r="13.4" style="fill:#6c63ff"/>
  <g id="stars">
    <ellipse cx="680.5" cy="324.4" rx="3.7" ry="4.4" transform="translate(-20 651.4) rotate(-51.2)" style="fill:#6c63ff"/>
    <ellipse cx="704" cy="229.7" rx="2.2" ry="2.6" transform="translate(62.6 634.4) rotate(-51.2)" style="fill:#f0f0f0"/>
    <ellipse cx="113.7" cy="299" rx="2.2" ry="2.6" transform="translate(-211.8 200.2) rotate(-51.2)" style="fill:#f0f0f0"/>
    <ellipse cx="582.9" cy="403.9" rx="2.2" ry="2.6" transform="translate(-118.4 605) rotate(-51.2)" style="fill:#f0f0f0"/>
    <ellipse cx="309.9" cy="208.6" rx="3.7" ry="4.4" transform="translate(-68.2 319.4) rotate(-51.2)" style="fill:#6c63ff"/>
    <ellipse cx="220.6" cy="246.4" rx="2.2" ry="2.6" transform="translate(-130.9 264) rotate(-51.2)" style="fill:#f0f0f0"/>
    <ellipse cx="638.3" cy="148.6" rx="2.2" ry="2.6" transform="translate(101.3 552.9) rotate(-51.2)" style="fill:#f0f0f0"/>
    <ellipse cx="228.7" cy="410.8" rx="2.2" ry="2.6" transform="translate(-256 331.6) rotate(-51.2)" style="fill:#f0f0f0"/>
    <ellipse cx="475.1" cy="43" rx="2.2" ry="2.6" transform="translate(122.6 386.3) rotate(-51.2)" style="fill:#f0f0f0"/>
    <ellipse cx="461.7" cy="167" rx="2.2" ry="2.6" transform="translate(21 422.2) rotate(-51.2)" style="fill:#f0f0f0"/>
    <ellipse cx="220" cy="303.3" rx="2.2" ry="2.6" transform="translate(-175.5 284.7) rotate(-51.2)" style="fill:#f0f0f0"/>
    <ellipse cx="448" cy="504.6" rx="2.2" ry="2.6" transform="translate(-247.2 537.5) rotate(-51.2)" style="fill:#f0f0f0"/>
    <ellipse cx="422.1" cy="322.1" rx="2.2" ry="2.6" transform="translate(-114.7 449.2) rotate(-51.2)" style="fill:#f0f0f0"/>
    <ellipse cx="567" cy="251.2" rx="2.2" ry="2.6" transform="translate(-5.4 535.6) rotate(-51.2)" style="fill:#f0f0f0"/>
    <ellipse cx="620" cy="383.8" rx="4.3" ry="5.2" transform="translate(-88.9 626.4) rotate(-51.2)" style="fill:#ff6584"/>
    <ellipse cx="546.2" cy="142.2" rx="4.3" ry="5.2" transform="translate(71.8 478.7) rotate(-51.2)" style="fill:#ff6584"/>
    <ellipse cx="361.3" cy="372.1" rx="4.3" ry="5.2" transform="translate(-176.4 420.5) rotate(-51.2)" style="fill:#ff6584"/>
  </g>
  <circle cx="21.3" cy="356.6" r="17.5" style="fill:#e6e6e6"/>
  <circle cx="104.2" cy="56.2" r="10.7" style="fill:#ff6584"/>
  <circle cx="54.2" cy="462.2" r="10.7" style="fill:#ff6584"/>
  <circle cx="784.2" cy="287.2" r="10.7" style="fill:#ff6584"/>
  <circle cx="622.2" cy="546.2" r="17.5" style="fill:#e6e6e6"/>
  <ellipse id="ellipse1" cx="422.7" cy="411.2" rx="403.5" ry="75" transform="translate(-73.1 61.2) rotate(-7.8)" style="fill:none;stroke:#6c63ff;stroke-miterlimit:10.000000284952417;stroke-width:3.000000085485725px"/>
  <ellipse id="ellipse2" cx="427.2" cy="349.7" rx="78.8" ry="395.9" transform="translate(-36.7 679.6) rotate(-76)" style="fill:none;stroke:#6c63ff;stroke-miterlimit:10.000000024244446;stroke-width:3.000000007273334px"/>
  <circle id="circle1" cx="738.5" cy="325.3" r="12.8" style="fill:#6c63ff"/>
  <circle id="smallGalax3" cx="478.7" cy="101.8" r="35.8" style="fill:#e6e6e6"/>
  <path d="M761 292s-6 43-21 69c0 0-151-12-306 12s-323 69-323 69-13-25-23-68a1732 1732 0 0 1 192-39c45-7 128-21 161-25 24-2 82-4 110-7 108-9 167-8 210-11Z" transform="translate(-21.3 0)" style="fill:#3f3d56"/>
  <path d="M107 198s-15 37-18 58a1600 1600 0 0 0 360 59c155 45 273 77 273 77s20-30 27-49c0 0-131-51-249-76l-117-27-126-24c-43-8-150-18-150-18Z" transform="translate(-21.3 0)" style="fill:#3f3d56"/>
  <path id="rod" d="M554 351 406 227l144 129a3 3 0 1 0 4-5Z" transform="translate(-21.3 0)" style="fill:#f0f0f0;opacity:.30000001192092896;isolation:isolate"/>
  <path d="M491 73s-20 5-21 26 19 32 19 32" transform="translate(-21.3 0)" style="fill:none;stroke:#000;stroke-miterlimit:10.000000284952417"/>
  <g id="smallGalax">
    <circle cx="224.7" cy="375.8" r="89" style="fill:#f2f2f2"/>
    <path d="M326 370a81 81 0 1 1-53-76 81 81 0 0 1 53 76Z" transform="translate(-21.3 0)" style="fill:#fff"/>
    <circle cx="208.7" cy="342.8" r="25" style="fill:#e4e4e4"/>
    <path d="M322 347a25 25 0 0 1-27-41 80 80 0 0 1 27 41Z" transform="translate(-21.3 0)" style="fill:#f2f2f2"/>
    <circle cx="270.8" cy="396.9" r="9" transform="translate(-227.5 454.6) rotate(-62.6)" style="fill:#e4e4e4"/>
    <path d="M235 448a5 5 0 0 1-1 2 82 82 0 0 1-17-4 9 9 0 0 1 18 2Zm-53-82a18 18 0 0 1-17 18 83 83 0 0 1 2-36 18 18 0 0 1 15 18Z" transform="translate(-21.3 0)" style="fill:#f2f2f2"/>
  </g>
</svg>
