<svg id="a27b99c7-e964-4c47-a10a-750eac27831c" xmlns="http://www.w3.org/2000/svg" width="804.9" height="578.4" viewBox="0 0 804.9 578.4">
  <path d="M763 286c-3 43-22 84-49 119l-3 4-8 9-10 11-9 9-7 7c-29 25-61 46-95 65-66 36-138 64-213 68s-153-18-207-69c-74-69-95-184-65-280 20-64 61-122 116-160s125-55 190-44c53-31 121-32 178-9 31 13 58 32 82 54a344 344 0 0 1 31 34l3 3 11 16 15 23 4 6 3 5a266 266 0 0 1 32 88l2 12a175 175 0 0 1-1 29Z" transform="translate(-12)" style="fill:#3f3d56"/>
  <path d="M568 351 420 227l144 129a3 3 0 1 0 4-5Z" transform="translate(-12)" style="fill:#f0f0f0;opacity:.30000001192092896;isolation:isolate"/>
  <g id="smallGalax">
    <circle cx="214.3" cy="198.5" r="89" style="fill:#f2f2f2"/>
    <path d="M307 193a81 81 0 1 1-53-76 81 81 0 0 1 53 76Z" transform="translate(-12)" style="fill:#fff"/>
    <circle cx="198.3" cy="165.5" r="25" style="fill:#e4e4e4"/>
    <path d="M303 170a25 25 0 0 1-27-41 81 81 0 0 1 27 41Z" transform="translate(-12)" style="fill:#f2f2f2"/>
    <circle cx="251.7" cy="219.8" r="9" transform="rotate(-72 245 228)" style="fill:#e4e4e4"/>
    <path d="M216 271a8 8 0 0 1-1 2 82 82 0 0 1-17-4 9 9 0 1 1 18 2Zm-53-82a18 18 0 0 1-17 18 83 83 0 0 1 2-36 18 18 0 0 1 15 18Z" transform="translate(-12)" style="fill:#f2f2f2"/>
  </g>
  <g id="stars">
    <circle cx="593.2" cy="156.2" r="3.7" style="fill:#6c63ff"/>
    <circle cx="559" cy="67.6" r="2.2" style="fill:#f0f0f0"/>
    <circle cx="212" cy="491.6" r="2.2" style="fill:#f0f0f0"/>
    <circle cx="571.3" cy="279.3" r="2.2" style="fill:#f0f0f0"/>
    <circle cx="292.2" cy="298.2" r="3.7" style="fill:#6c63ff"/>
    <circle cx="254" cy="383.6" r="2.2" style="fill:#f0f0f0"/>
    <circle cx="474" cy="45.6" r="2.2" style="fill:#f0f0f0"/>
    <circle cx="345" cy="506.6" r="2.2" style="fill:#f0f0f0"/>
    <circle cx="313" cy="65.6" r="2.2" style="fill:#f0f0f0"/>
    <circle cx="369" cy="170.6" r="2.2" style="fill:#f0f0f0"/>
    <circle cx="283.3" cy="428.3" r="2.2" style="fill:#f0f0f0"/>
    <circle cx="536.3" cy="442.3" r="2.2" style="fill:#f0f0f0"/>
    <circle cx="424.3" cy="316.3" r="2.2" style="fill:#f0f0f0"/>
    <circle cx="481.3" cy="170.3" r="2.2" style="fill:#f0f0f0"/>
    <circle cx="584.9" cy="240.4" r="4.3" style="fill:#ff6584"/>
    <circle cx="410.9" cy="98.4" r="4.3" style="fill:#ff6584"/>
    <circle cx="410.9" cy="393.4" r="4.3" style="fill:#ff6584"/>
  </g>
  <path d="M691 418a8 8 0 0 0-7 6 7 7 0 0 0 0 2v12l9-9 10-11Z" transform="translate(-12)" style="fill:#6c63ff"/>
  <g id="smallGalax2">
    <circle cx="668.4" cy="182.1" r="34.4" style="fill:#fff"/>
    <path d="M682 148a35 35 0 1 0 35 35 35 35 0 0 0-35-35Zm0 68a34 34 0 1 1 34-34 34 34 0 0 1-34 34Z" transform="translate(-12)" style="fill:#2f2e41"/>
    <path d="M651 191a1 1 0 0 1 0-1 34 34 0 0 1 8-28 1 1 0 0 1 1 1 32 32 0 0 0-8 27Z" transform="translate(-12)" style="fill:#2f2e41"/>
  </g>
  <path d="M717 266h-58a8 8 0 0 0-8 8v128a48 48 0 0 0 26 43l7-7 9-9 10-11 8-9 3-4c27-35 46-76 49-119a64 64 0 0 0-46-20Z" transform="translate(-12)" style="fill:#2f2e41"/>
  <path d="M719 293a15 15 0 0 0-10-4 14 14 0 0 0-9 3 5 5 0 0 0-1 1l-48 49-34 35a8 8 0 0 0-1 2 6 6 0 0 0-1 3 7 7 0 0 0 2 5l1 1 10 10a7 7 0 0 0 5 1 7 7 0 0 0 5-2l1-1 12-12 69-71a15 15 0 0 0-1-20Z" transform="translate(-12)" style="fill:#6c63ff"/>
  <circle id="smallGalax3" cx="516.5" cy="53.8" r="9.4" style="fill:#e6e6e6"/>
  <circle cx="638" cy="252.5" r="17.5" style="fill:#e6e6e6"/>
  <circle id="circle_1" cx="74.9" cy="228.8" r="17.5" style="fill:#6c63ff"/>
  <circle id="circle_1" cx="734.2" cy="354.7" r="17.5" style="fill:#6c63ff"/>
  <circle cx="114.2" cy="56.2" r="10.7" style="fill:#ff6584"/>
  <circle cx="46.7" cy="316.3" r="10.7" style="fill:#ff6584"/>
  <circle cx="794.2" cy="287.2" r="10.7" style="fill:#ff6584"/>
  <circle cx="632.2" cy="546.2" r="17.5" style="fill:#e6e6e6"/>
  <path id="ellipse1" d="M97 230c-31 3-49 11-53 24s12 31 40 50c60 39 182 86 325 122 60 15 117 27 169 34l69 9c95 9 159 2 166-23 3-13-10-29-35-47a377 377 0 0 0-43-25" transform="translate(-12)" style="fill:none;stroke:#6c63ff;stroke-miterlimit:10;stroke-width:3px"/>
  <path style="fill:none;stroke:#6c63ff;stroke-miterlimit:10;stroke-width:3px" d="M591 320"/>
  <path id="ellipse" d="M744 355c40 10 63 22 63 37 1 13-17 27-49 39-23 9-53 18-89 25a1965 1965 0 0 1-530 22c-76-11-124-28-125-49-1-17 29-34 79-49" transform="translate(-12)" style="fill:none;stroke:#6c63ff;stroke-miterlimit:10;stroke-width:3px"/>
</svg>
