<svg id="a27b99c7-e964-4c47-a10a-750eac27831c" data-name="Layer 1" xmlns="http://www.w3.org/2000/svg" width="555.9" height="408.1" viewBox="0 0 855.9 630.1">
  <path d="M935 473c-3 43-22 84-49 119l-3 4-8 9-10 11-9 9-7 7c-29 25-61 46-95 65-66 36-138 64-213 68-74 4-153-18-207-69-74-69-95-184-65-280 20-64 61-122 116-160s125-55 190-44c53-31 121-32 178-9 31 13 58 32 82 54a339 339 0 0 1 31 34l3 3 11 16 15 23 4 6 3 5a267 267 0 0 1 32 88l2 12a177 177 0 0 1-1 29Z" transform="translate(-172 -135)" fill="#3f3d56"/>
  <path d="M740 538 592 414l144 129a3 3 0 1 0 4-5Z" transform="translate(-172 -135)" fill="#f0f0f0" opacity=".3"/>
  <circle cx="227.6" cy="250.8" r="89" fill="#f2f2f2"/>
  <path d="M479 380a81 81 0 0 1-81 81 82 82 0 0 1-28-5 81 81 0 1 1 109-76Z" transform="translate(-172 -135)" fill="#fff"/>
  <circle cx="211.6" cy="217.8" r="25" fill="#e4e4e4"/>
  <path d="M475 357a25 25 0 0 1-27-41 81 81 0 0 1 27 41Z" transform="translate(-172 -135)" fill="#f2f2f2"/>
  <circle cx="252.6" cy="271.8" r="9" fill="#e4e4e4"/>
  <path d="M388 458a9 9 0 0 1-1 2 80 80 0 0 1-17-4 9 9 0 0 1 18 2ZM335 376a18 18 0 0 1-17 18 82 82 0 0 1 2-36 18 18 0 0 1 15 18Z" transform="translate(-172 -135)" fill="#f2f2f2"/>
  <circle cx="606.5" cy="208.5" r="3.7" fill="#6c63ff"/>
  <circle cx="572.3" cy="119.9" r="2.2" fill="#f0f0f0"/>
  <circle cx="225.3" cy="543.9" r="2.2" fill="#f0f0f0"/>
  <circle cx="584.6" cy="331.6" r="2.2" fill="#f0f0f0"/>
  <circle cx="305.5" cy="350.5" r="3.7" fill="#6c63ff"/>
  <circle cx="171.5" cy="416.5" r="17.5" fill="#6c63ff"/>
  <circle cx="267.3" cy="435.9" r="2.2" fill="#f0f0f0"/>
  <circle cx="487.3" cy="97.9" r="2.2" fill="#f0f0f0"/>
  <circle cx="358.3" cy="558.9" r="2.2" fill="#f0f0f0"/>
  <circle cx="326.3" cy="117.9" r="2.2" fill="#f0f0f0"/>
  <circle cx="382.3" cy="222.9" r="2.2" fill="#f0f0f0"/>
  <circle cx="296.6" cy="480.6" r="2.2" fill="#f0f0f0"/>
  <circle cx="549.6" cy="494.6" r="2.2" fill="#f0f0f0"/>
  <circle cx="437.6" cy="368.6" r="2.2" fill="#f0f0f0"/>
  <circle cx="494.6" cy="222.6" r="2.2" fill="#f0f0f0"/>
  <circle cx="598.2" cy="292.7" r="4.3" fill="#ff6584"/>
  <circle cx="424.2" cy="150.7" r="4.3" fill="#ff6584"/>
  <circle cx="424.2" cy="445.7" r="4.3" fill="#ff6584"/>
  <path d="M863 605a8 8 0 0 0-7 6 7 7 0 0 0 0 2v12l9-9 10-11Z" transform="translate(-172 -135)" fill="#6c63ff"/>
  <path d="m891 668-43-2c-79-5-183-22-290-49-108-27-207-60-280-93-35-16-62-31-80-45-20-15-28-28-25-38 5-21 50-25 88-25v3c-52 0-82 8-86 23-4 18 34 47 105 79 72 33 171 66 279 93 107 27 210 44 289 49 78 5 125-2 130-21 4-16-22-38-72-64l1-3c37 19 79 46 74 68-3 10-16 18-40 22-14 2-31 3-50 3Z" transform="translate(-172 -135)" fill="#6c63ff"/>
  <circle cx="714.6" cy="208.8" r="100.5" fill="#fff"/>
  <path d="M887 242a102 102 0 1 0 102 102 102 102 0 0 0-102-102Zm0 201a99 99 0 1 1 99-99 99 99 0 0 1-99 99Z" transform="translate(-172 -135)" fill="#2f2e41"/>
  <path d="M798 368a2 2 0 0 1-2-2 98 98 0 0 1 23-83 2 2 0 0 1 3 3 94 94 0 0 0-22 79 2 2 0 0 1-2 3Z" transform="translate(-172 -135)" fill="#2f2e41"/>
  <circle cx="714.5" cy="238.3" r="63.9" fill="#6c63ff"/>
  <path d="M866 397c-4 0-9 0-13-3a10 10 0 0 1-4-7 7 7 0 0 1 2-6c2-2 5-2 9-1l-4-25h3l4 29-2-1c-3-1-6-2-8 0a4 4 0 0 0-2 4 8 8 0 0 0 3 5l12 3Z" transform="translate(-172 -135)" fill="#2f2e41"/>
  <path fill="#2f2e41" d="M659 222h13v3h-13zM701 222h14v3h-14z"/>
  <path d="M889 453h-58a8 8 0 0 0-8 8v128a48 48 0 0 0 26 43l7-7 9-9 10-11 8-9 3-4c27-35 46-76 49-119a64 64 0 0 0-46-20Z" transform="translate(-172 -135)" fill="#2f2e41"/>
  <path d="M891 480a15 15 0 0 0-10-4 14 14 0 0 0-9 3 13 13 0 0 0-1 1l-48 49-34 35a7 7 0 0 0-1 2 7 7 0 0 0-1 3 7 7 0 0 0 2 5l1 1 10 10a7 7 0 0 0 5 1 7 7 0 0 0 5-2l1-1 12-12 69-71a15 15 0 0 0-1-20Z" transform="translate(-172 -135)" fill="#6c63ff"/>
  <path d="M891 343c2-4 0-9-4-12-5-3-11-3-16-1-6 2-11 5-18 5a11 11 0 0 1-10-7c-3-9 0-18 6-25a34 34 0 0 1 27-12 35 35 0 0 1 28 17 2 2 0 0 0 2 1 37 37 0 0 1 28-1 36 36 0 0 1 23 35c0 2 3 2 3 0a40 40 0 0 0-11-28 39 39 0 0 0-27-12 39 39 0 0 0-18 3l3 1a38 38 0 0 0-26-18 36 36 0 0 0-29 7c-8 6-14 16-13 26 0 4 1 9 4 12 4 4 10 5 15 4 7-2 14-6 21-6a10 10 0 0 1 8 3c1 2 2 5 1 7s2 3 3 1Z" transform="translate(-172 -135)" fill="#2f2e41"/>
  <path d="M412 704c-36 0-69-1-98-3-39-4-70-9-91-16-24-7-36-16-37-27-2-21 40-41 75-54l1 3c-49 18-74 35-73 50 2 20 48 34 125 41 79 6 184 4 294-7s213-29 290-51c74-21 116-44 114-64-1-15-33-28-89-36v-3c41 6 90 17 92 39 1 11-9 22-30 34-20 11-49 22-87 33a2034 2034 0 0 1-486 61Z" transform="translate(-172 -135)" fill="#6c63ff"/>
  <circle cx="838.5" cy="434.5" r="17.5" fill="#6c63ff"/>
  <circle cx="331.5" cy="17.5" r="17.5" fill="#e6e6e6"/>
  <circle cx="19.5" cy="433.5" r="17.5" fill="#e6e6e6"/>
  <circle cx="127.5" cy="108.5" r="10.7" fill="#ff6584"/>
  <circle cx="77.5" cy="514.5" r="10.7" fill="#ff6584"/>
  <circle cx="807.5" cy="339.5" r="10.7" fill="#ff6584"/>
  <circle cx="645.5" cy="598.5" r="17.5" fill="#e6e6e6"/>
</svg>
