<svg id="Sibteali" fill="#ffffff" xmlns="http://www.w3.org/2000/svg" width="628.2" viewBox="0 0 328.2 72.9">
  <path d="M.7 33.2V4.9h6.6v11.3h3.2V4.9h6.6v28.3h-6.6V21.1H7.3v12.1ZM23.4 7a3.3 3.3 0 0 1-2.3-.9 3 3 0 0 1-1-2.2 2.7 2.7 0 0 1 1-2.2 3.1 3.1 0 0 1 4.6 0 2.7 2.7 0 0 1 1 2.2 2.7 2.7 0 0 1-1 2.2 3.2 3.2 0 0 1-2.3.9Zm-3.2 26.2V9.5h6.5v23.7ZM31.7 24.2l-1.1-8.9L30.2 3h7.1L37 15.1l-1.2 9.1Zm2.3 9.4a3.5 3.5 0 0 1-2.5-.9 3.1 3.1 0 0 1-1.1-2.3 3 3 0 0 1 1.1-2.3 3.2 3.2 0 0 1 2.5-1 3.3 3.3 0 0 1 2.5 1 2.9 2.9 0 0 1 1 2.3 3 3 0 0 1-1 2.3 3.7 3.7 0 0 1-2.5.9ZM48.7 33.2V4.9h6.6v28.3ZM70.2 33.6a8.8 8.8 0 0 1-2.4-.3 3.3 3.3 0 0 1-1.7-1.4 5.3 5.3 0 0 1-.7-3.1v-3.5a5 5 0 0 1 1.3-3.6 9.1 9.1 0 0 1 4.2-2.3l2.2-1a2.3 2.3 0 0 0 1.1-1.1 3 3 0 0 0 .4-1.8V14a1.9 1.9 0 0 0-.2-.8l-.5-.6h-.7a1 1 0 0 0-1.1.7 7.3 7.3 0 0 0-.3 2.5v2h-5.9v-2.7a9.6 9.6 0 0 1 .5-3.1 4.1 4.1 0 0 1 2.1-2.2 11.4 11.4 0 0 1 4.7-.8 20.5 20.5 0 0 1 4.9.5 4 4 0 0 1 2.4 1.7 6.6 6.6 0 0 1 .7 3.4v18.6h-6.5v-2.5a3.2 3.2 0 0 1-1.7 2.1 4.8 4.8 0 0 1-2.8.8Zm2.8-4.2c.7 0 1.1-.3 1.2-.8a6.1 6.1 0 0 0 .3-2.2V21a1.7 1.7 0 0 1-.6.6 1.8 1.8 0 0 0-.9.6 3 3 0 0 0-1 .9 2.6 2.6 0 0 0-.3 1.4v2.7l.1 1.2a1.3 1.3 0 0 0 .5.7.9.9 0 0 0 .7.3ZM83.9 33.2V9.5h5.6l.5 3a4.5 4.5 0 0 1 1.6-2.4 4.8 4.8 0 0 1 2.8-1 5.4 5.4 0 0 1 3.9 1.2 5.6 5.6 0 0 1 1.3 3.4H99a5 5 0 0 1 1.5-3.2 4.8 4.8 0 0 1 3.2-1.3c2.1 0 3.5.6 4.2 1.6a8 8 0 0 1 1.1 4.6v17.8h-6.6V15.6a2.6 2.6 0 0 0-.3-1.4 1.1 1.1 0 0 0-1-.4 1.5 1.5 0 0 0-.9.2 1.2 1.2 0 0 0-.5.5v18.7h-6.5V15.6a1.8 1.8 0 0 0-.4-1.4 1 1 0 0 0-.9-.4H91a1 1 0 0 0-.6.5v18.9ZM127.1 33.6a12.7 12.7 0 0 1-4.6-.7 5.9 5.9 0 0 1-2.9-2.5 12.5 12.5 0 0 1-1-5.3v-1.7h7v2.3a12.1 12.1 0 0 0 .2 2.3 1.5 1.5 0 0 0 .6 1.1 1.1 1.1 0 0 0 .8.3 1.5 1.5 0 0 0 1.3-.6 6.9 6.9 0 0 0 .4-2.6 5.2 5.2 0 0 0-.5-2.5 3.9 3.9 0 0 0-1.7-1.3l-3.1-1.3a9.3 9.3 0 0 1-2.7-1.9 5.4 5.4 0 0 1-1.6-2.6 14.3 14.3 0 0 1-.4-3.8 10.7 10.7 0 0 1 .8-4.7 4.7 4.7 0 0 1 2.5-2.5 12.1 12.1 0 0 1 5.1-.8c2.7 0 4.8.5 6.2 1.7a6.1 6.1 0 0 1 2.1 5.1v3.5H129v-1.5a9 9 0 0 0-.3-2.8c-.2-.5-.7-.7-1.4-.7a1.2 1.2 0 0 0-1.2.6 4.1 4.1 0 0 0-.4 1.9 3.2 3.2 0 0 0 .7 2.3 2.6 2.6 0 0 0 1.5 1.2l2 .8a23 23 0 0 1 3.5 1.7 4.8 4.8 0 0 1 1.9 2.3 11.9 11.9 0 0 1 .6 4.3 10.1 10.1 0 0 1-1 5 6.1 6.1 0 0 1-3.1 2.6 11.3 11.3 0 0 1-4.7.8ZM141.5 7a3.1 3.1 0 0 1-2.2-.9 2.7 2.7 0 0 1-1-2.2 2.7 2.7 0 0 1 1-2.2 3.1 3.1 0 0 1 4.6 0 3 3 0 0 1 1 2.2 2.7 2.7 0 0 1-1 2.2 3.2 3.2 0 0 1-2.4.9Zm-3.2 26.2V9.5h6.6v23.7ZM157.3 33.6a5.4 5.4 0 0 1-3.3-.9 4.8 4.8 0 0 1-1.4-1.6l-.2 2.1h-4.6V3h6.6v8.3a4.4 4.4 0 0 1 1.3-1.5 4.1 4.1 0 0 1 2.7-.7 5.8 5.8 0 0 1 2.6.5 3.7 3.7 0 0 1 1.9 1.6 6.7 6.7 0 0 1 .8 3.5V26a14 14 0 0 1-.5 4 4.2 4.2 0 0 1-3.3 3.3 9.8 9.8 0 0 1-2.6.3Zm-1.6-4.4.8-.2c.2-.1.4-.2.4-.4a1.9 1.9 0 0 0 .2-.8V14.4a1.4 1.4 0 0 0-.2-.7l-.5-.4h-.7a1.3 1.3 0 0 0-1 .4 2.8 2.8 0 0 0-.3 1.5v12.4a2.4 2.4 0 0 0 .2.9 1 1 0 0 0 .4.5ZM174.2 33.4a8.6 8.6 0 0 1-2.3-.2 5.2 5.2 0 0 1-2.2-.7 4.1 4.1 0 0 1-1.6-1.6 6.4 6.4 0 0 1-.6-3V13.3h-2.3v-3.2l2.9-.6.9-4.4h5v4.4h4.3v3.8H174v13.5a3.2 3.2 0 0 0 .4 1.6c.2.5.7.7 1.6.7h2.3V33l-1.4.2a11.2 11.2 0 0 1-2.7.2ZM187.9 33.6a17.5 17.5 0 0 1-4.3-.5 5.1 5.1 0 0 1-2.7-2.3 12.3 12.3 0 0 1-1-5.4V15.2q0-3.4 2.1-4.8c1.3-.9 3.3-1.3 5.9-1.3a10.8 10.8 0 0 1 5.9 1.3c1.3.9 2 2.5 2 4.8v6.7h-9.3v6.3a3 3 0 0 0 .3 1.6 1.4 1.4 0 0 0 1.1.4 1.1 1.1 0 0 0 1-.4 2.8 2.8 0 0 0 .4-1.6v-4h6.5v1.2a11 11 0 0 1-1 5.4 4.9 4.9 0 0 1-2.6 2.3 17.5 17.5 0 0 1-4.3.5ZM186.5 19h2.8v-4.6a2.7 2.7 0 0 0-.4-1.5 1.1 1.1 0 0 0-1-.4 1.4 1.4 0 0 0-1.1.4 2.8 2.8 0 0 0-.3 1.5ZM202.5 33.6a8.8 8.8 0 0 1-2.4-.3 4 4 0 0 1-1.8-1.4 6.3 6.3 0 0 1-.6-3.1v-3.5a5 5 0 0 1 1.3-3.6 9.1 9.1 0 0 1 4.2-2.3l2.2-1a2.3 2.3 0 0 0 1.1-1.1 3 3 0 0 0 .4-1.8V14a1.9 1.9 0 0 0-.2-.8l-.5-.6h-.7a1 1 0 0 0-1.1.7 7.3 7.3 0 0 0-.3 2.5v2h-5.9v-2.7a9.6 9.6 0 0 1 .5-3.1 4.1 4.1 0 0 1 2.1-2.2 11 11 0 0 1 4.7-.8 20.5 20.5 0 0 1 4.9.5 4 4 0 0 1 2.4 1.7 6.6 6.6 0 0 1 .7 3.4v18.6H207v-2.5a3.5 3.5 0 0 1-1.7 2.1 4.8 4.8 0 0 1-2.8.8Zm2.8-4.2a1.2 1.2 0 0 0 1.2-.8 6.1 6.1 0 0 0 .3-2.2V21l-.6.6a2.1 2.1 0 0 0-1 .6 3.8 3.8 0 0 0-.9.9 2.6 2.6 0 0 0-.3 1.4v2.7a4.1 4.1 0 0 0 .1 1.2 1.3 1.3 0 0 0 .5.7.9.9 0 0 0 .7.3ZM216.2 33.2V3h6.5v30.2ZM228.9 7a3.3 3.3 0 0 1-2.3-.9 3.5 3.5 0 0 1-1-2.2 3 3 0 0 1 1-2.2 3.2 3.2 0 0 1 2.3-1 3.3 3.3 0 0 1 2.4 1 2.9 2.9 0 0 1 .9 2.2 2.9 2.9 0 0 1-.9 2.2 3.6 3.6 0 0 1-2.4.9Zm-3.2 26.2V9.5h6.5v23.7ZM242.8 33.2V4.9h10.7a5.7 5.7 0 0 1 4.2 1.3 4.7 4.7 0 0 1 1.4 3.5v3.1a5.6 5.6 0 0 1-.4 2.3 4 4 0 0 1-1 1.7 3.5 3.5 0 0 1-1.3.8 5.3 5.3 0 0 1-1.6.4 3.2 3.2 0 0 1 1.4.2 3.4 3.4 0 0 1 1.5.7 4.2 4.2 0 0 1 1.3 1.8 5.4 5.4 0 0 1 .5 2.7v3.8a6.4 6.4 0 0 1-.8 3.6 3.8 3.8 0 0 1-2.3 1.8 9.8 9.8 0 0 1-3.6.5Zm6.7-16.5h1.5a1.4 1.4 0 0 0 1.2-.6 4.9 4.9 0 0 0 .5-2.5v-2.7a3 3 0 0 0-.4-1.9 1.1 1.1 0 0 0-1-.6h-1.8Zm0 13.1h1.8a1.1 1.1 0 0 0 .8-.2 1.9 1.9 0 0 0 .5-.9 7.4 7.4 0 0 0 .2-1.8v-3.2a4.1 4.1 0 0 0-.4-2.3 1.7 1.7 0 0 0-1.3-.5h-1.6ZM266.3 33.6a8.8 8.8 0 0 1-2.4-.3 3.3 3.3 0 0 1-1.7-1.4 6.2 6.2 0 0 1-.7-3.1v-3.5a5.5 5.5 0 0 1 1.3-3.6 10.3 10.3 0 0 1 4.2-2.3l2.2-1a2.6 2.6 0 0 0 1.2-1.1 4.2 4.2 0 0 0 .3-1.8V14a1.1 1.1 0 0 0-.2-.8l-.4-.6h-.8a1.1 1.1 0 0 0-1.1.7 7.3 7.3 0 0 0-.3 2.5v2H262v-2.7a9.6 9.6 0 0 1 .5-3.1 4.1 4.1 0 0 1 2.1-2.2 11.4 11.4 0 0 1 4.7-.8 19.9 19.9 0 0 1 4.9.5 3.4 3.4 0 0 1 2.4 1.7 6.6 6.6 0 0 1 .7 3.4v18.6h-6.5v-2.5a3.2 3.2 0 0 1-1.7 2.1 4.6 4.6 0 0 1-2.8.8Zm2.9-4.2a1.2 1.2 0 0 0 1.2-.8 6.1 6.1 0 0 0 .3-2.2V21a2.2 2.2 0 0 1-.7.6 2.4 2.4 0 0 0-.9.6 4.5 4.5 0 0 0-1 .9 2.6 2.6 0 0 0-.3 1.4v2.7a3.7 3.7 0 0 0 .2 1.2c.1.3.2.6.4.7a1.1 1.1 0 0 0 .8.3ZM289 38.8v-7.7a3.6 3.6 0 0 1-1.3 1.7 4.3 4.3 0 0 1-2.8.8 5.8 5.8 0 0 1-1.9-.3 3.7 3.7 0 0 1-1.7-1 5.1 5.1 0 0 1-1.2-2.2 14.5 14.5 0 0 1-.4-4V14.6a6.8 6.8 0 0 1 .5-2.7 3.7 3.7 0 0 1 1.3-1.7 4.6 4.6 0 0 1 1.6-.7 5.7 5.7 0 0 1 1.8-.3 4.3 4.3 0 0 1 2.8.7 3.2 3.2 0 0 1 1.3 1.3V9.5h6.5v29.3Zm-1.3-8.9h.6l.4-.5.3-.7V13.9l-.3-.4-.4-.3h-1.4l-.4.4a1.4 1.4 0 0 0-.2.7 2.2 2.2 0 0 0-.1.9v12.6a2.2 2.2 0 0 0 .1.9 1.4 1.4 0 0 0 .2.7l.4.4ZM302.8 33.6a8.8 8.8 0 0 1-2.4-.3 3.3 3.3 0 0 1-1.7-1.4 5.3 5.3 0 0 1-.7-3.1v-3.5a5 5 0 0 1 1.3-3.6 9.1 9.1 0 0 1 4.2-2.3l2.2-1a2.6 2.6 0 0 0 1.2-1.1 4.2 4.2 0 0 0 .3-1.8V14a1.9 1.9 0 0 0-.2-.8l-.5-.6h-.7a1 1 0 0 0-1.1.7 7.3 7.3 0 0 0-.3 2.5v2h-5.9v-2.7a9.6 9.6 0 0 1 .5-3.1 4.1 4.1 0 0 1 2.1-2.2 11.4 11.4 0 0 1 4.7-.8 20.5 20.5 0 0 1 4.9.5 3.7 3.7 0 0 1 2.4 1.7 6.6 6.6 0 0 1 .7 3.4v18.6h-6.5v-2.5a3.2 3.2 0 0 1-1.7 2.1 4.8 4.8 0 0 1-2.8.8Zm2.9-4.2a1.2 1.2 0 0 0 1.2-.8 10.9 10.9 0 0 0 .2-2.2V21l-.6.6a1.8 1.8 0 0 0-.9.6 3 3 0 0 0-1 .9 2.6 2.6 0 0 0-.3 1.4v2.7a3.7 3.7 0 0 0 .2 1.2.8.8 0 0 0 .4.7 1 1 0 0 0 .8.3ZM316.5 33.2V9.5h5.6l.5 3a3.9 3.9 0 0 1 1.1-1.7 5.4 5.4 0 0 1 1.6-1 5.5 5.5 0 0 1 3.6-.4v5h-2.4a3.4 3.4 0 0 0-1.6.5 2.7 2.7 0 0 0-1.4 1.6 6.6 6.6 0 0 0-.5 2.5v14.2ZM.7 73.2V44.9h6.6v28.3ZM22.2 73.6a8.8 8.8 0 0 1-2.4-.3 3.3 3.3 0 0 1-1.7-1.4 5.3 5.3 0 0 1-.7-3.1v-3.5a5 5 0 0 1 1.3-3.6 9.1 9.1 0 0 1 4.2-2.3l2.2-1a2.3 2.3 0 0 0 1.1-1.1 3 3 0 0 0 .4-1.8V54a1.9 1.9 0 0 0-.2-.8l-.5-.6h-.7a1 1 0 0 0-1.1.7 7.3 7.3 0 0 0-.3 2.5v2h-5.9v-2.7a9.6 9.6 0 0 1 .5-3.1 4.1 4.1 0 0 1 2.1-2.2 11.4 11.4 0 0 1 4.7-.8 20.5 20.5 0 0 1 4.9.5 4 4 0 0 1 2.4 1.7 6.6 6.6 0 0 1 .7 3.4v18.6h-6.5v-2.5a3.2 3.2 0 0 1-1.7 2.1 4.8 4.8 0 0 1-2.8.8Zm2.8-4.2c.7 0 1.1-.3 1.2-.8a6.1 6.1 0 0 0 .3-2.2V61a1.7 1.7 0 0 1-.6.6 1.8 1.8 0 0 0-.9.6 3 3 0 0 0-1 .9 2.6 2.6 0 0 0-.3 1.4v2.7l.1 1.2a1.3 1.3 0 0 0 .5.7.9.9 0 0 0 .7.3ZM35.9 73.2V49.5h5.6l.5 3a4.5 4.5 0 0 1 1.6-2.4 4.8 4.8 0 0 1 2.8-1 5.4 5.4 0 0 1 3.9 1.2 5.6 5.6 0 0 1 1.3 3.4H51a5 5 0 0 1 1.5-3.2 4.8 4.8 0 0 1 3.2-1.3c2.1 0 3.5.6 4.2 1.6a8 8 0 0 1 1.1 4.5v17.9h-6.6V55.6a2.6 2.6 0 0 0-.3-1.4 1.1 1.1 0 0 0-1-.4 1.5 1.5 0 0 0-.9.2 1.2 1.2 0 0 0-.5.5v18.7h-6.5V55.6a1.8 1.8 0 0 0-.4-1.4 1 1 0 0 0-.9-.4H43c-.3.1-.4.3-.6.5v18.9ZM75.4 73.6a8.5 8.5 0 0 1-2.3-.3 4 4 0 0 1-1.8-1.4 6.3 6.3 0 0 1-.6-3.1v-3.5a5 5 0 0 1 1.3-3.6 9.1 9.1 0 0 1 4.2-2.3l2.2-1a2.3 2.3 0 0 0 1.1-1.1 4 4 0 0 0 .4-1.8V54a1.9 1.9 0 0 0-.2-.8l-.5-.6h-.7a1 1 0 0 0-1.1.7 7.3 7.3 0 0 0-.3 2.5v2h-5.9v-2.7a9.6 9.6 0 0 1 .5-3.1 3.8 3.8 0 0 1 2.1-2.2 11 11 0 0 1 4.7-.8 20.5 20.5 0 0 1 4.9.5 4 4 0 0 1 2.4 1.7 6.6 6.6 0 0 1 .7 3.4v18.6H80v-2.5a3.5 3.5 0 0 1-1.7 2.1 4.9 4.9 0 0 1-2.9.8Zm2.9-4.2a1.2 1.2 0 0 0 1.2-.8 6.1 6.1 0 0 0 .3-2.2V61a1.7 1.7 0 0 1-.6.6 2.1 2.1 0 0 0-1 .6 3.8 3.8 0 0 0-.9.9 2.6 2.6 0 0 0-.3 1.4v2.7a4.1 4.1 0 0 0 .1 1.2 1.3 1.3 0 0 0 .5.7.9.9 0 0 0 .7.3Z" transform="translate(-.7 -.7)"/>
</svg>
