<svg id="Sibteali" xmlns="http://www.w3.org/2000/svg" xmlns:xlink="http://www.w3.org/1999/xlink" width="600" height="300" viewBox="0 0 373.58 93.6"><defs><linearGradient id="linear-gradient" x1="81.27" y1="-79.1" x2="291.19" y2="130.83" gradientUnits="userSpaceOnUse"><stop offset="0" stop-color="#fff"/><stop offset="0.25" stop-color="#feebc2"/><stop offset="0.84" stop-color="#fdb92b"/><stop offset="1" stop-color="#fcab00"/></linearGradient></defs><title>name_text_SVG-01</title><path d="M0,30.53V2.16H3.27V14.5h8V2.16h3.22V30.53H11.24V17h-8V30.53Z" transform="translate(-0.01 -0.1)" style="fill:url(#linear-gradient)"/><path d="M21.46,3.89a1.86,1.86,0,0,1-1.34-.55A1.79,1.79,0,0,1,19.54,2,1.73,1.73,0,0,1,20.1.72,1.89,1.89,0,0,1,21.46.19a2,2,0,0,1,1.35.53A1.71,1.71,0,0,1,23.38,2a1.78,1.78,0,0,1-.57,1.32A1.88,1.88,0,0,1,21.46,3.89ZM19.83,30.53V6.77h3.22V30.53Z" transform="translate(-0.01 -0.1)" style="fill:url(#linear-gradient)"/><path d="M29.91,30.82a2.11,2.11,0,0,1-1.49-.55,1.84,1.84,0,0,1-.57-1.37,1.78,1.78,0,0,1,.57-1.32A2.06,2.06,0,0,1,29.91,27a2.11,2.11,0,0,1,1.44.55A1.7,1.7,0,0,1,32,28.9a1.76,1.76,0,0,1-.63,1.37A2.16,2.16,0,0,1,29.91,30.82Zm-1.15-9.55-.58-8.21L28,.29H31.5L31.35,13l-.58,8.31Z" transform="translate(-0.01 -0.1)" style="fill:url(#linear-gradient)"/><path d="M46.24,30.53V2.16H49.5V30.53Z" transform="translate(-0.01 -0.1)" style="fill:url(#linear-gradient)"/><path d="M68.28,30.87a8.29,8.29,0,0,1-2.23-.32,3.42,3.42,0,0,1-1.9-1.41,6.3,6.3,0,0,1-.76-3.51v-2.4a5.27,5.27,0,0,1,1.44-3.86,13,13,0,0,1,4-2.62c1-.51,1.93-1,2.61-1.36A4.54,4.54,0,0,0,73,14a3.69,3.69,0,0,0,.5-2.07V11a2.77,2.77,0,0,0-.45-1.73,2.47,2.47,0,0,0-1.2-.82,5.22,5.22,0,0,0-1.61-.24c-1.38,0-2.28.38-2.71,1.13a7,7,0,0,0-.65,3.38v2H64v-2.3a9.48,9.48,0,0,1,.48-3.15,4,4,0,0,1,1.83-2.16,7.94,7.94,0,0,1,4-.79,11.09,11.09,0,0,1,4.18.6A3.32,3.32,0,0,1,76.3,8.67a7.39,7.39,0,0,1,.48,2.8V30.53H73.56V27.6a4.31,4.31,0,0,1-2.06,2.45A6.64,6.64,0,0,1,68.28,30.87Zm1.2-2.16a3.39,3.39,0,0,0,3.07-1.47,7.12,7.12,0,0,0,1-4V15.84a5,5,0,0,1-1.58,1.32c-.7.4-1.41.81-2.11,1.23a9.59,9.59,0,0,0-2.45,1.89A4,4,0,0,0,66.51,23V25A5.16,5.16,0,0,0,67,27.43a2.2,2.2,0,0,0,1.15,1A4.21,4.21,0,0,0,69.48,28.71Z" transform="translate(-0.01 -0.1)" style="fill:url(#linear-gradient)"/><path d="M81.24,30.53V6.77h2.69l.38,2.69a4.53,4.53,0,0,1,1.76-2.21A6.51,6.51,0,0,1,93,7.59,4.66,4.66,0,0,1,94.15,11h-.52a5.84,5.84,0,0,1,1.82-3.27,5,5,0,0,1,3.46-1.25c2,0,3.38.48,4.1,1.42a7,7,0,0,1,1.08,4.25V30.53h-3.22V12.63a5,5,0,0,0-.67-3,2.84,2.84,0,0,0-2.3-.81,3.65,3.65,0,0,0-2.5.88,3.35,3.35,0,0,0-1.15,2.19V30.53H91V12.29a4.4,4.4,0,0,0-.64-2.69A2.93,2.93,0,0,0,88,8.79a3.35,3.35,0,0,0-2.35.74,4.43,4.43,0,0,0-1.2,1.75V30.53Z" transform="translate(-0.01 -0.1)" style="fill:url(#linear-gradient)"/><path d="M124.07,30.87a8.71,8.71,0,0,1-3.75-.75,5.13,5.13,0,0,1-2.45-2.57,12.06,12.06,0,0,1-.86-5V20.88h3.36v1.87a11,11,0,0,0,.46,3.6,3.13,3.13,0,0,0,1.32,1.8,3.78,3.78,0,0,0,2,.51A4,4,0,0,0,127,27.53c.77-.75,1.16-2.12,1.16-4.1a6.35,6.35,0,0,0-.65-3.2,4.5,4.5,0,0,0-1.92-1.7c-.85-.42-1.9-.88-3.15-1.39a14.32,14.32,0,0,1-2.73-1.56,6,6,0,0,1-1.88-2.33,8.78,8.78,0,0,1-.67-3.65,11.48,11.48,0,0,1,.67-4.2,4.71,4.71,0,0,1,2.24-2.47,9,9,0,0,1,4.15-.82,7.44,7.44,0,0,1,5.18,1.66,6,6,0,0,1,1.83,4.68v3.17h-3.22V9.31a5.42,5.42,0,0,0-.93-3.45,4.11,4.11,0,0,0-5.72,0,6,6,0,0,0-.88,3.63,5.24,5.24,0,0,0,.69,2.88A4.84,4.84,0,0,0,123.06,14a23.68,23.68,0,0,0,2.4,1.08A19.5,19.5,0,0,1,129,16.8a5.11,5.11,0,0,1,2,2.28,9.87,9.87,0,0,1,.63,3.91,9.85,9.85,0,0,1-.94,4.66A5.4,5.4,0,0,1,128,30.12,9.57,9.57,0,0,1,124.07,30.87Z" transform="translate(-0.01 -0.1)" style="fill:url(#linear-gradient)"/><path d="M137.36,3.89A1.86,1.86,0,0,1,136,3.34,1.79,1.79,0,0,1,135.44,2,1.73,1.73,0,0,1,136,.72a1.89,1.89,0,0,1,1.36-.53,2,2,0,0,1,1.35.53,1.71,1.71,0,0,1,.57,1.3,1.78,1.78,0,0,1-.57,1.32A1.9,1.9,0,0,1,137.36,3.89Zm-1.63,26.64V6.77H139V30.53Z" transform="translate(-0.01 -0.1)" style="fill:url(#linear-gradient)"/><path d="M151.09,30.87a5.69,5.69,0,0,1-3.34-.8,4.16,4.16,0,0,1-1.46-1.75l-.14,2.21h-2.31V.29h3.22v8.4A3.56,3.56,0,0,1,148.69,7a7.84,7.84,0,0,1,6.26.17,4,4,0,0,1,1.66,2.09,9.21,9.21,0,0,1,.48,3.12V24.1a14.8,14.8,0,0,1-.26,2.9,5.29,5.29,0,0,1-.92,2.14,3.86,3.86,0,0,1-1.82,1.29A8.72,8.72,0,0,1,151.09,30.87Zm-.62-2.21a4.29,4.29,0,0,0,2-.39,2.2,2.2,0,0,0,1-1,4.23,4.23,0,0,0,.34-1.44c0-.55,0-1.09,0-1.64V12.82c0-.55,0-1.07,0-1.59a3.9,3.9,0,0,0-.36-1.39,2.28,2.28,0,0,0-1-1,4.45,4.45,0,0,0-2-.36,3.21,3.21,0,0,0-2.67,1,4.7,4.7,0,0,0-.74,2.88V23.23c0,.64,0,1.28.05,1.9a5.38,5.38,0,0,0,.36,1.73,2.73,2.73,0,0,0,1,1.29A3.3,3.3,0,0,0,150.47,28.66Z" transform="translate(-0.01 -0.1)" style="fill:url(#linear-gradient)"/><path d="M166.79,30.63a6.66,6.66,0,0,1-1.95-.27,4.16,4.16,0,0,1-1.53-.81,3.45,3.45,0,0,1-1-1.47,6.68,6.68,0,0,1-.33-2.25v-17h-2.16V7.11l2.35-.34.57-4.46h2.4V6.77h5.09v2h-5.09V25.25a4.48,4.48,0,0,0,.51,2.21,2.1,2.1,0,0,0,2,.91c.45,0,.93,0,1.46-.07s.89-.07,1.08-.07v2l-1.32.22A12.86,12.86,0,0,1,166.79,30.63Z" transform="translate(-0.01 -0.1)" style="fill:url(#linear-gradient)"/><path d="M179.41,31a11.58,11.58,0,0,1-3.94-.55,3.8,3.8,0,0,1-2.18-2.06,11,11,0,0,1-.7-4.4V12.24c0-2.24.52-3.77,1.56-4.61s2.72-1.24,5-1.24,4,.41,5,1.24,1.54,2.37,1.54,4.61v6.15h-9.94v6.72a5,5,0,0,0,.7,3.07,3.53,3.53,0,0,0,2.8.86,3.12,3.12,0,0,0,2.57-.84,5.32,5.32,0,0,0,.65-3.09V21.94h3.22v2a11.16,11.16,0,0,1-.68,4.36A3.8,3.8,0,0,1,183,30.39,9.7,9.7,0,0,1,179.41,31Zm-3.6-14.21h6.72V12a4.91,4.91,0,0,0-.65-2.85c-.43-.59-1.33-.89-2.71-.89a3.24,3.24,0,0,0-2.66.89,4.59,4.59,0,0,0-.7,2.85Z" transform="translate(-0.01 -0.1)" style="fill:url(#linear-gradient)"/><path d="M194.19,30.87a8.29,8.29,0,0,1-2.23-.32,3.36,3.36,0,0,1-1.89-1.41,6.21,6.21,0,0,1-.77-3.51v-2.4a5.27,5.27,0,0,1,1.44-3.86,13,13,0,0,1,4-2.62c1.06-.51,1.93-1,2.62-1.36A4.5,4.5,0,0,0,198.92,14a3.69,3.69,0,0,0,.51-2.07V11A2.77,2.77,0,0,0,199,9.22a2.38,2.38,0,0,0-1.2-.82,5.22,5.22,0,0,0-1.61-.24c-1.37,0-2.28.38-2.71,1.13a7,7,0,0,0-.65,3.38v2h-2.93v-2.3a9.48,9.48,0,0,1,.48-3.15,4,4,0,0,1,1.83-2.16,7.94,7.94,0,0,1,4-.79,11.09,11.09,0,0,1,4.18.6,3.28,3.28,0,0,1,1.87,1.78,7.39,7.39,0,0,1,.48,2.8V30.53h-3.22V27.6a4.31,4.31,0,0,1-2.06,2.45A6.62,6.62,0,0,1,194.19,30.87Zm1.2-2.16a3.41,3.41,0,0,0,3.08-1.47,7.12,7.12,0,0,0,1-4V15.84a5,5,0,0,1-1.59,1.32c-.7.4-1.41.81-2.11,1.23a9.59,9.59,0,0,0-2.45,1.89,4.09,4.09,0,0,0-.86,2.76V25a5.16,5.16,0,0,0,.45,2.47,2.18,2.18,0,0,0,1.16,1A4.15,4.15,0,0,0,195.39,28.71Z" transform="translate(-0.01 -0.1)" style="fill:url(#linear-gradient)"/><path d="M207.15,30.53V.1h3.22V30.53Z" transform="translate(-0.01 -0.1)" style="fill:url(#linear-gradient)"/><path d="M216.9,3.89a1.88,1.88,0,0,1-1.35-.55A1.78,1.78,0,0,1,215,2a1.72,1.72,0,0,1,.55-1.3,2,2,0,0,1,2.71,0,1.72,1.72,0,0,1,.58,1.3,1.79,1.79,0,0,1-.58,1.32A1.86,1.86,0,0,1,216.9,3.89Zm-1.63,26.64V6.77h3.21V30.53Z" transform="translate(-0.01 -0.1)" style="fill:url(#linear-gradient)"/><path d="M233,30.53V2.16h8.88a6.19,6.19,0,0,1,3.88,1.15,4.21,4.21,0,0,1,1.49,3.56v3.45a6.78,6.78,0,0,1-.38,2.33,4.61,4.61,0,0,1-1.06,1.7,3.61,3.61,0,0,1-1.58.87,9.7,9.7,0,0,1-1.59.29v-.1a7.5,7.5,0,0,1,1.85.22,3.23,3.23,0,0,1,1.51.79,5,5,0,0,1,1.13,1.75,6.63,6.63,0,0,1,.41,2.42v4.08a7.16,7.16,0,0,1-.77,3.7,3.85,3.85,0,0,1-2.13,1.7,10.17,10.17,0,0,1-3.24.46Zm3.26-15.79h4a3.8,3.8,0,0,0,2.86-1,4.17,4.17,0,0,0,1-3V7.44a3.23,3.23,0,0,0-.91-2.54A3.12,3.12,0,0,0,241,4.08h-4.75Zm0,13.92h4.51a5.19,5.19,0,0,0,1.85-.31,2.27,2.27,0,0,0,1.22-1.2,6.49,6.49,0,0,0,.44-2.72V20.64c0-1.53-.38-2.54-1.13-3a5.12,5.12,0,0,0-2.81-.72h-4.08Z" transform="translate(-0.01 -0.1)" style="fill:url(#linear-gradient)"/><path d="M256.55,30.87a8.29,8.29,0,0,1-2.23-.32,3.36,3.36,0,0,1-1.89-1.41,6.21,6.21,0,0,1-.77-3.51v-2.4a5.27,5.27,0,0,1,1.44-3.86,13,13,0,0,1,4-2.62c1.06-.51,1.93-1,2.62-1.36A4.5,4.5,0,0,0,261.28,14a3.69,3.69,0,0,0,.51-2.07V11a2.77,2.77,0,0,0-.46-1.73,2.38,2.38,0,0,0-1.2-.82,5.22,5.22,0,0,0-1.61-.24c-1.37,0-2.28.38-2.71,1.13a7,7,0,0,0-.65,3.38v2h-2.93v-2.3a9.48,9.48,0,0,1,.48-3.15,4,4,0,0,1,1.83-2.16,7.94,7.94,0,0,1,4-.79,11.09,11.09,0,0,1,4.18.6,3.28,3.28,0,0,1,1.87,1.78,7.39,7.39,0,0,1,.48,2.8V30.53h-3.22V27.6a4.31,4.31,0,0,1-2.06,2.45A6.62,6.62,0,0,1,256.55,30.87Zm1.2-2.16a3.41,3.41,0,0,0,3.08-1.47,7.12,7.12,0,0,0,1-4V15.84a5,5,0,0,1-1.59,1.32c-.7.4-1.41.81-2.11,1.23a9.59,9.59,0,0,0-2.45,1.89,4.09,4.09,0,0,0-.86,2.76V25a5.16,5.16,0,0,0,.45,2.47,2.18,2.18,0,0,0,1.16,1A4.15,4.15,0,0,0,257.75,28.71Z" transform="translate(-0.01 -0.1)" style="fill:url(#linear-gradient)"/><path d="M279,36.1V28a4.45,4.45,0,0,1-4.51,3,7.35,7.35,0,0,1-2.72-.43,3.72,3.72,0,0,1-1.7-1.3,5,5,0,0,1-.86-2.13,15,15,0,0,1-.24-2.91V12.39a10.06,10.06,0,0,1,.26-2.43,4.61,4.61,0,0,1,.91-1.87,4,4,0,0,1,1.68-1.2,7.24,7.24,0,0,1,2.62-.41,5.6,5.6,0,0,1,3.19.7A3.61,3.61,0,0,1,279,8.69l.19-1.92h3V36.1ZM275.56,29a3,3,0,0,0,1.9-.53,3.21,3.21,0,0,0,1-1.29,5.56,5.56,0,0,0,.43-1.54,9.64,9.64,0,0,0,.1-1.29v-11c0-.52,0-1.06-.07-1.64a5.5,5.5,0,0,0-.37-1.6,2.38,2.38,0,0,0-1-1.2,3.71,3.71,0,0,0-2-.46,4.27,4.27,0,0,0-1.94.36,2.2,2.2,0,0,0-1,1,3.67,3.67,0,0,0-.36,1.41c0,.52-.05,1.06-.05,1.64V24.63c0,.57,0,1.12.05,1.65a3.36,3.36,0,0,0,.36,1.39,2.41,2.41,0,0,0,1,1A4.12,4.12,0,0,0,275.56,29Z" transform="translate(-0.01 -0.1)" style="fill:url(#linear-gradient)"/><path d="M291.45,30.87a8.23,8.23,0,0,1-2.23-.32,3.35,3.35,0,0,1-1.9-1.41,6.29,6.29,0,0,1-.77-3.51v-2.4A5.27,5.27,0,0,1,288,19.37a13.07,13.07,0,0,1,4-2.62c1.06-.51,1.93-1,2.62-1.36A4.54,4.54,0,0,0,296.18,14a3.77,3.77,0,0,0,.5-2.07V11a2.71,2.71,0,0,0-.46-1.73A2.38,2.38,0,0,0,295,8.4a5.16,5.16,0,0,0-1.6-.24c-1.38,0-2.28.38-2.72,1.13a7,7,0,0,0-.64,3.38v2h-2.93v-2.3a9.48,9.48,0,0,1,.48-3.15,4,4,0,0,1,1.82-2.16,8,8,0,0,1,4-.79,11.07,11.07,0,0,1,4.17.6,3.28,3.28,0,0,1,1.87,1.78,7.39,7.39,0,0,1,.48,2.8V30.53h-3.21V27.6a4.33,4.33,0,0,1-2.07,2.45A6.61,6.61,0,0,1,291.45,30.87Zm1.2-2.16a3.39,3.39,0,0,0,3.07-1.47,7.12,7.12,0,0,0,1-4V15.84a5,5,0,0,1-1.58,1.32c-.71.4-1.41.81-2.12,1.23a9.52,9.52,0,0,0-2.44,1.89,4,4,0,0,0-.87,2.76V25a5,5,0,0,0,.46,2.47,2.16,2.16,0,0,0,1.15,1A4.16,4.16,0,0,0,292.65,28.71Z" transform="translate(-0.01 -0.1)" style="fill:url(#linear-gradient)"/><path d="M304.41,30.53V6.77h2.69l.38,2.59a3.48,3.48,0,0,1,1.68-1.92,7.33,7.33,0,0,1,2.35-.72,6.46,6.46,0,0,1,2.69-.09V9.12a2.93,2.93,0,0,0-.72-.14,8.92,8.92,0,0,0-1.06,0,3.22,3.22,0,0,0-1.05.22,4.51,4.51,0,0,0-2.69,1.22,3.66,3.66,0,0,0-1.06,2.72V30.53Z" transform="translate(-0.01 -0.1)" style="fill:url(#linear-gradient)"/><path d="M330.15,30.87a8.3,8.3,0,0,1-2.24-.32A3.36,3.36,0,0,1,326,29.14a6.29,6.29,0,0,1-.77-3.51v-2.4a5.27,5.27,0,0,1,1.44-3.86,13,13,0,0,1,4-2.62c1.06-.51,1.93-1,2.62-1.36A4.4,4.4,0,0,0,334.87,14a3.69,3.69,0,0,0,.51-2.07V11a2.71,2.71,0,0,0-.46-1.73,2.38,2.38,0,0,0-1.2-.82,5.18,5.18,0,0,0-1.61-.24c-1.37,0-2.28.38-2.71,1.13a7,7,0,0,0-.65,3.38v2h-2.92v-2.3a9.48,9.48,0,0,1,.48-3.15,4,4,0,0,1,1.82-2.16,8,8,0,0,1,4-.79,11.09,11.09,0,0,1,4.18.6,3.28,3.28,0,0,1,1.87,1.78,7.39,7.39,0,0,1,.48,2.8V30.53h-3.21V27.6a4.37,4.37,0,0,1-2.07,2.45A6.61,6.61,0,0,1,330.15,30.87Zm1.2-2.16a3.4,3.4,0,0,0,3.07-1.47,7.12,7.12,0,0,0,1-4V15.84a4.91,4.91,0,0,1-1.59,1.32l-2.11,1.23a9.77,9.77,0,0,0-2.45,1.89,4.09,4.09,0,0,0-.86,2.76V25a5,5,0,0,0,.46,2.47,2.13,2.13,0,0,0,1.15,1A4.16,4.16,0,0,0,331.35,28.71Z" transform="translate(-0.01 -0.1)" style="fill:url(#linear-gradient)"/><path d="M343.11,30.53V6.77h2.68l.39,2.59A3.72,3.72,0,0,1,348,7.11a5.86,5.86,0,0,1,2.85-.72,6.19,6.19,0,0,1,3.67.86A4,4,0,0,1,356,9.55a12.84,12.84,0,0,1,.36,3.12V30.53h-3.21V13.06c0-.55,0-1.07-.05-1.59a3.71,3.71,0,0,0-.36-1.39,2.28,2.28,0,0,0-1-1,4.45,4.45,0,0,0-2-.36,3.55,3.55,0,0,0-1.87.43,3,3,0,0,0-1.06,1,6,6,0,0,0-.53,1.08v19.3Z" transform="translate(-0.01 -0.1)" style="fill:url(#linear-gradient)"/><path d="M366.29,30.91a8.39,8.39,0,0,1-2.93-.43,4.07,4.07,0,0,1-1.82-1.27,4.71,4.71,0,0,1-.92-2.14,16.37,16.37,0,0,1-.24-3V12.29a10,10,0,0,1,.27-2.42A4.65,4.65,0,0,1,361.56,8a4.16,4.16,0,0,1,1.68-1.2,7.25,7.25,0,0,1,2.62-.4,6.46,6.46,0,0,1,3,.57,4.06,4.06,0,0,1,1.54,1.35v-8h3.16V30.53h-2.16l-.33-2.26a5.27,5.27,0,0,1-.84,1.2,4.3,4.3,0,0,1-1.49,1A6.31,6.31,0,0,1,366.29,30.91Zm.58-2a3.71,3.71,0,0,0,2.06-.48,2.72,2.72,0,0,0,1-1.25,5.17,5.17,0,0,0,.36-1.73c0-.64.05-1.26.05-1.87V10.56a2.94,2.94,0,0,0-.43-.93,2.73,2.73,0,0,0-1-.87,4.35,4.35,0,0,0-2-.36,4.27,4.27,0,0,0-1.94.36,2.2,2.2,0,0,0-1,1,3.49,3.49,0,0,0-.36,1.41c0,.53,0,1.08,0,1.66V24.58a14.36,14.36,0,0,0,.15,2.11,2.6,2.6,0,0,0,.81,1.63A3.36,3.36,0,0,0,366.87,29Z" transform="translate(-0.01 -0.1)" style="fill:url(#linear-gradient)"/><path d="M35.57,88.13V59.76h3.27V88.13Z" transform="translate(-0.01 -0.1)" style="fill:url(#linear-gradient)"/><path d="M57.27,88.47A8.23,8.23,0,0,1,55,88.15a3.34,3.34,0,0,1-1.9-1.41,6.29,6.29,0,0,1-.77-3.51v-2.4A5.27,5.27,0,0,1,53.81,77a13,13,0,0,1,4-2.62c1-.51,1.92-1,2.61-1.36A4.54,4.54,0,0,0,62,71.62a3.77,3.77,0,0,0,.5-2.07v-1a2.77,2.77,0,0,0-.45-1.73,2.47,2.47,0,0,0-1.2-.82,5.27,5.27,0,0,0-1.61-.24c-1.38,0-2.28.38-2.71,1.13a6.86,6.86,0,0,0-.65,3.38v2H53V70a9.48,9.48,0,0,1,.48-3.15,4,4,0,0,1,1.82-2.16,8,8,0,0,1,4-.79,11,11,0,0,1,4.17.6,3.3,3.3,0,0,1,1.88,1.78,7.39,7.39,0,0,1,.48,2.8V88.13H62.55V85.2a4.31,4.31,0,0,1-2.06,2.45A6.67,6.67,0,0,1,57.27,88.47Zm1.2-2.16a3.39,3.39,0,0,0,3.07-1.47,7.12,7.12,0,0,0,1-4V73.44a5,5,0,0,1-1.58,1.32c-.71.4-1.41.81-2.11,1.23a9.63,9.63,0,0,0-2.45,1.89,4,4,0,0,0-.87,2.76v1.92A5.15,5.15,0,0,0,56,85a2.16,2.16,0,0,0,1.15,1A4.21,4.21,0,0,0,58.47,86.31Z" transform="translate(-0.01 -0.1)" style="fill:url(#linear-gradient)"/><path d="M70.23,88.13V64.37h2.69l.38,2.69a4.55,4.55,0,0,1,1.75-2.21,6.53,6.53,0,0,1,6.89.34,4.66,4.66,0,0,1,1.2,3.36h-.53a5.91,5.91,0,0,1,1.83-3.27A5,5,0,0,1,87.89,64c2,0,3.39.48,4.11,1.42a7,7,0,0,1,1.08,4.25V88.13H89.86V70.23a5,5,0,0,0-.67-3,2.85,2.85,0,0,0-2.3-.81,3.64,3.64,0,0,0-2.5.88,3.31,3.31,0,0,0-1.15,2.19V88.13H80V69.89a4.32,4.32,0,0,0-.65-2.69A2.89,2.89,0,0,0,77,66.39a3.37,3.37,0,0,0-2.36.74,4.51,4.51,0,0,0-1.19,1.75V88.13Z" transform="translate(-0.01 -0.1)" style="fill:url(#linear-gradient)"/><path d="M110.69,88.47a8.29,8.29,0,0,1-2.23-.32,3.37,3.37,0,0,1-1.9-1.41,6.3,6.3,0,0,1-.76-3.51v-2.4A5.27,5.27,0,0,1,107.24,77a13,13,0,0,1,4-2.62c1-.51,1.93-1,2.61-1.36a4.54,4.54,0,0,0,1.54-1.37,3.69,3.69,0,0,0,.5-2.07v-1a2.77,2.77,0,0,0-.45-1.73,2.47,2.47,0,0,0-1.2-.82,5.22,5.22,0,0,0-1.61-.24c-1.38,0-2.28.38-2.71,1.13a7,7,0,0,0-.65,3.38v2h-2.93V70a9.48,9.48,0,0,1,.48-3.15,4,4,0,0,1,1.83-2.16,7.94,7.94,0,0,1,4-.79,11.09,11.09,0,0,1,4.18.6,3.32,3.32,0,0,1,1.87,1.78,7.39,7.39,0,0,1,.48,2.8V88.13H116V85.2a4.31,4.31,0,0,1-2.06,2.45A6.64,6.64,0,0,1,110.69,88.47Zm1.2-2.16A3.39,3.39,0,0,0,115,84.84a7.12,7.12,0,0,0,1-4V73.44a5,5,0,0,1-1.58,1.32c-.7.4-1.41.81-2.11,1.23a9.81,9.81,0,0,0-2.45,1.89,4,4,0,0,0-.86,2.76v1.92a5.16,5.16,0,0,0,.45,2.47,2.2,2.2,0,0,0,1.15,1A4.21,4.21,0,0,0,111.89,86.31Z" transform="translate(-0.01 -0.1)" style="fill:url(#linear-gradient)"/><path d="M135.36,88.13,130.9,59.76h3.31l3.51,23.86,4.22-23.86h2.64l4.18,23.86,3.55-23.86h3.31l-4.46,28.37h-3.8l-4.08-21.07L139.2,88.13Z" transform="translate(-0.01 -0.1)" style="fill:url(#linear-gradient)"/><path d="M165.27,88.56a11.54,11.54,0,0,1-3.94-.55A3.8,3.8,0,0,1,159.15,86a10.81,10.81,0,0,1-.7-4.4V69.84c0-2.24.52-3.77,1.56-4.61S162.72,64,165,64s4,.41,5,1.24,1.53,2.37,1.53,4.61V76h-9.93v6.72a5.08,5.08,0,0,0,.69,3.07,3.55,3.55,0,0,0,2.81.86,3.12,3.12,0,0,0,2.57-.84,5.32,5.32,0,0,0,.65-3.09V79.54h3.21v2a11.15,11.15,0,0,1-.67,4.36A3.82,3.82,0,0,1,168.84,88,9.6,9.6,0,0,1,165.27,88.56Zm-3.6-14.21h6.72v-4.8a4.91,4.91,0,0,0-.65-2.85c-.43-.59-1.34-.89-2.71-.89a3.28,3.28,0,0,0-2.67.89,4.66,4.66,0,0,0-.69,2.85Z" transform="translate(-0.01 -0.1)" style="fill:url(#linear-gradient)"/><path d="M183,88.47a5.67,5.67,0,0,1-3.34-.8,4.09,4.09,0,0,1-1.46-1.75L178,88.13h-2.31V57.89H179v8.4a3.56,3.56,0,0,1,1.63-1.73,7.84,7.84,0,0,1,6.26.17,4,4,0,0,1,1.66,2.09,9.21,9.21,0,0,1,.48,3.12V81.7a14.8,14.8,0,0,1-.26,2.9,5.29,5.29,0,0,1-.92,2.14A3.86,3.86,0,0,1,186,88,8.72,8.72,0,0,1,183,88.47Zm-.62-2.21a4.29,4.29,0,0,0,2-.39,2.2,2.2,0,0,0,1-1,4.23,4.23,0,0,0,.34-1.44c0-.55,0-1.09,0-1.64V70.42c0-.55,0-1.07,0-1.59a3.9,3.9,0,0,0-.36-1.39,2.28,2.28,0,0,0-1-1,4.45,4.45,0,0,0-2-.36,3.21,3.21,0,0,0-2.67,1,4.7,4.7,0,0,0-.74,2.88V80.83c0,.65,0,1.28.05,1.9a5.38,5.38,0,0,0,.36,1.73,2.77,2.77,0,0,0,1,1.29A3.36,3.36,0,0,0,182.36,86.26Z" transform="translate(-0.01 -0.1)" style="fill:url(#linear-gradient)"/><path d="M202.61,88.13V59.76h8.64a8.33,8.33,0,0,1,3.15.55,4,4,0,0,1,2,1.8,7.1,7.1,0,0,1,.7,3.41V82a7.48,7.48,0,0,1-.79,3.74,4.2,4.2,0,0,1-2.19,1.87,9.38,9.38,0,0,1-3.31.53ZM206,86.31h4.42a3.57,3.57,0,0,0,2.52-.87c.62-.57.93-1.68.93-3.31V65.91c0-1.64-.31-2.74-.93-3.32a3.62,3.62,0,0,0-2.52-.86H206Z" transform="translate(-0.01 -0.1)" style="fill:url(#linear-gradient)"/><path d="M228.34,88.56A11.54,11.54,0,0,1,224.4,88,3.8,3.8,0,0,1,222.22,86a10.81,10.81,0,0,1-.7-4.4V69.84c0-2.24.52-3.77,1.56-4.61s2.72-1.24,5-1.24,4,.41,5,1.24,1.54,2.37,1.54,4.61V76h-9.94v6.72a5,5,0,0,0,.7,3.07,3.51,3.51,0,0,0,2.8.86,3.12,3.12,0,0,0,2.57-.84,5.32,5.32,0,0,0,.65-3.09V79.54h3.22v2a11.13,11.13,0,0,1-.68,4.36A3.82,3.82,0,0,1,231.91,88,9.6,9.6,0,0,1,228.34,88.56Zm-3.6-14.21h6.72v-4.8a4.91,4.91,0,0,0-.65-2.85c-.43-.59-1.34-.89-2.71-.89a3.24,3.24,0,0,0-2.66.89,4.59,4.59,0,0,0-.7,2.85Z" transform="translate(-0.01 -0.1)" style="fill:url(#linear-gradient)"/><path d="M242.55,88.13,237,64.37h3.31l4.32,20.11h-.1l4-20.11h3.07l-5.33,23.76Z" transform="translate(-0.01 -0.1)" style="fill:url(#linear-gradient)"/><path d="M260.69,88.56a11.58,11.58,0,0,1-3.94-.55A3.8,3.8,0,0,1,254.57,86a11,11,0,0,1-.7-4.4V69.84c0-2.24.52-3.77,1.57-4.61s2.71-1.24,5-1.24,4,.41,5,1.24S267,67.6,267,69.84V76h-9.94v6.72a5,5,0,0,0,.7,3.07,3.53,3.53,0,0,0,2.8.86,3.12,3.12,0,0,0,2.57-.84,5.32,5.32,0,0,0,.65-3.09V79.54H267v2a11.34,11.34,0,0,1-.67,4.36A3.85,3.85,0,0,1,264.27,88,9.7,9.7,0,0,1,260.69,88.56Zm-3.6-14.21h6.72v-4.8a4.91,4.91,0,0,0-.65-2.85c-.43-.59-1.33-.89-2.71-.89a3.24,3.24,0,0,0-2.66.89,4.59,4.59,0,0,0-.7,2.85Z" transform="translate(-0.01 -0.1)" style="fill:url(#linear-gradient)"/><path d="M271.16,88.13V57.7h3.21V88.13Z" transform="translate(-0.01 -0.1)" style="fill:url(#linear-gradient)"/><path d="M285.36,88.47a8.69,8.69,0,0,1-4.13-.8,4.05,4.05,0,0,1-2-2.37,12.19,12.19,0,0,1-.53-3.89v-11a10.42,10.42,0,0,1,.5-3.34,4.13,4.13,0,0,1,2-2.28,8.7,8.7,0,0,1,4.15-.81,8.49,8.49,0,0,1,4.15.81,4.11,4.11,0,0,1,1.92,2.28,10.15,10.15,0,0,1,.51,3.34v11a12.48,12.48,0,0,1-.53,3.89,4.07,4.07,0,0,1-2,2.37A8.55,8.55,0,0,1,285.36,88.47Zm0-2a3.34,3.34,0,0,0,2.28-.63,2.8,2.8,0,0,0,.89-1.63,10.81,10.81,0,0,0,.19-2.06V70.27a10.65,10.65,0,0,0-.19-2.08,2.77,2.77,0,0,0-.89-1.61,3.34,3.34,0,0,0-2.28-.63,3.49,3.49,0,0,0-2.28.63,2.67,2.67,0,0,0-.93,1.61,10.64,10.64,0,0,0-.2,2.08V82.18a10.82,10.82,0,0,0,.2,2.06,2.69,2.69,0,0,0,.93,1.63A3.49,3.49,0,0,0,285.36,86.5Z" transform="translate(-0.01 -0.1)" style="fill:url(#linear-gradient)"/><path d="M296.31,93.7V64.37h3l.1,2.06a4.76,4.76,0,0,1,1.44-1.68A5.27,5.27,0,0,1,304,64a6.42,6.42,0,0,1,3.4.75,3.92,3.92,0,0,1,1.68,2.06,9.23,9.23,0,0,1,.48,3.15V81.7a13,13,0,0,1-.43,3.57,4.19,4.19,0,0,1-1.63,2.36,6.09,6.09,0,0,1-3.5.84,6.26,6.26,0,0,1-2.91-.58,3.66,3.66,0,0,1-1.56-1.44V93.7Zm6.62-7.15a4.13,4.13,0,0,0,2-.39,2.34,2.34,0,0,0,1-1,3.4,3.4,0,0,0,.36-1.39c0-.53,0-1.08,0-1.66V70.47c0-.58,0-1.12,0-1.64a3.67,3.67,0,0,0-.36-1.41,2.2,2.2,0,0,0-1-1,4.42,4.42,0,0,0-2-.36,3.46,3.46,0,0,0-1.94.46,2.56,2.56,0,0,0-1,1.2,5.21,5.21,0,0,0-.39,1.6c0,.58-.07,1.13-.07,1.64V82.42a9,9,0,0,0,.22,2.09,2.47,2.47,0,0,0,.93,1.48A3.72,3.72,0,0,0,302.93,86.55Z" transform="translate(-0.01 -0.1)" style="fill:url(#linear-gradient)"/><path d="M320.21,88.56a11.54,11.54,0,0,1-3.94-.55A3.8,3.8,0,0,1,314.09,86a10.81,10.81,0,0,1-.7-4.4V69.84c0-2.24.52-3.77,1.56-4.61S317.67,64,320,64s4,.41,5,1.24,1.54,2.37,1.54,4.61V76h-9.94v6.72a5,5,0,0,0,.7,3.07,3.51,3.51,0,0,0,2.8.86,3.12,3.12,0,0,0,2.57-.84,5.32,5.32,0,0,0,.65-3.09V79.54h3.22v2a11.13,11.13,0,0,1-.68,4.36A3.83,3.83,0,0,1,323.79,88,9.7,9.7,0,0,1,320.21,88.56Zm-3.6-14.21h6.72v-4.8a4.91,4.91,0,0,0-.65-2.85c-.43-.59-1.34-.89-2.71-.89a3.24,3.24,0,0,0-2.66.89,4.59,4.59,0,0,0-.7,2.85Z" transform="translate(-0.01 -0.1)" style="fill:url(#linear-gradient)"/><path d="M330.67,88.13V64.37h2.69l.39,2.59A3.48,3.48,0,0,1,335.43,65a7.26,7.26,0,0,1,2.35-.72,6.46,6.46,0,0,1,2.69-.09v2.49a3,3,0,0,0-.72-.14,9,9,0,0,0-1.06,0,3.28,3.28,0,0,0-1.06.22A4.48,4.48,0,0,0,335,68a3.62,3.62,0,0,0-1.06,2.72V88.13Z" transform="translate(-0.01 -0.1)" style="fill:url(#linear-gradient)"/></svg>