<svg xmlns:xlink="http://www.w3.org/1999/xlink" xmlns="http://www.w3.org/2000/svg" width="1825" height="1130" viewBox="0 0 1825 1130" fill="none"><path fill-rule="evenodd" clip-rule="evenodd" d="M509.153 522.053a.715.715 0 01.677.437.725.725 0 01-.148.793.729.729 0 01-.79.162.73.73 0 01-.327-.267.731.731 0 01.084-.911.71.71 0 01.504-.214zm195.188 540.727c.145.01.285.05.404.13.119.09.21.2.264.34a.725.725 0 01-.167.79.767.767 0 01-.375.2.76.76 0 01-.422-.04.77.77 0 01-.329-.27.742.742 0 01-.125-.41.794.794 0 01.221-.53c.07-.07.153-.12.245-.16a.926.926 0 01.287-.05h-.003zM116.286 806.37a.602.602 0 00.092-.936.876.876 0 00-1.071-.248.592.592 0 00-.272.446.596.596 0 00.18.49.877.877 0 001.071.248zm1238.154-53.795c.28.009.55.1.78.262.23.162.4.387.5.648.11.261.13.546.07.82-.06.273-.2.523-.4.718-.2.194-.46.326-.73.377-.28.051-.56.02-.82-.089a1.384 1.384 0 01-.63-.525 1.385 1.385 0 01-.12-1.341c.07-.175.18-.333.32-.466a1.422 1.422 0 011.03-.406v.002zM22.778 1065.21c.08-.05.147-.12.197-.19a.639.639 0 00.064-.54.547.547 0 00-.146-.23.946.946 0 00-.511-.32.945.945 0 00-.597.08.605.605 0 00-.26.72c.03.09.08.17.145.24a.94.94 0 00.511.32c.202.04.413.01.597-.08zM1690.93 423.363a1.192 1.192 0 00.57-.884c.02-.181 0-.364-.06-.537a1.076 1.076 0 00-.28-.458 1.756 1.756 0 00-2.16-.457 1.176 1.176 0 00-.57.881c-.03.181-.01.365.05.537.06.173.15.331.28.461.26.312.61.528 1 .611.4.084.81.029 1.17-.154zm-579.7-398.734a.81.81 0 01-.21-.192.775.775 0 01-.12-.537.81.81 0 01.1-.262c.1-.163.27-.279.46-.323a.74.74 0 01.76.277.78.78 0 01.11.257.89.89 0 01.01.282.809.809 0 01-.11.26.73.73 0 01-1 .237zM318.045 2.554a1.215 1.215 0 00.516-1.426 1.207 1.207 0 00-.285-.461 1.773 1.773 0 00-2.175-.465 1.212 1.212 0 00-.231 1.887 1.773 1.773 0 002.17.464h.005zM140.572 224.399a.616.616 0 00.115-.962.902.902 0 00-1.107-.239.626.626 0 00-.29.453.615.615 0 00.174.509.9.9 0 001.108.239zM1564.35 45.364c.06-.202.08-.413.05-.622-.03-.208-.1-.408-.22-.586-.11-.178-.25-.33-.43-.447a1.438 1.438 0 00-.58-.228 1.926 1.926 0 00-2.36.715c-.06.2-.08.412-.05.62.03.208.1.408.21.586.11.178.26.331.43.448.18.116.37.194.58.229.42.176.88.201 1.31.07.44-.13.81-.408 1.06-.785zM1686.72 1064.4c-.15-.1-.29-.23-.39-.38-.1-.16-.16-.33-.18-.52-.02-.18-.01-.36.05-.54.06-.17.16-.33.29-.46.26-.32.61-.53 1.01-.62.4-.08.81-.03 1.17.15.16.09.29.23.39.38.1.16.16.33.19.51.02.19 0 .37-.06.55-.06.17-.16.33-.29.46-.25.31-.61.53-1.01.62-.39.08-.81.03-1.17-.15zm-626.82 15.62a.893.893 0 00.87-.71.61.61 0 00-.03-.27.513.513 0 00-.15-.23.513.513 0 00-.23-.15c-.09-.03-.18-.04-.27-.03a.893.893 0 00-.87.71c-.01.09 0 .18.03.27.03.09.08.17.15.23.06.07.14.12.23.15s.18.04.27.03z" fill="#fff"/></svg>