<svg xmlns:xlink="http://www.w3.org/1999/xlink" xmlns="http://www.w3.org/2000/svg" width="1825" height="1130" viewBox="0 0 1825 1130" fill="none"><g clip-path="url(#clip0)"><path fill-rule="evenodd" clip-rule="evenodd" d="M331.641 651.919a.737.737 0 01.704.884.736.736 0 01-.579.569.734.734 0 01-.871-.721.738.738 0 01.746-.732zm372.7 60.864a.738.738 0 01.704.886.727.727 0 01-.578.57.734.734 0 01-.655-1.245.736.736 0 01.532-.215l-.003.004zm878.139-563.314a.6.6 0 01-.19-.192.592.592 0 01-.09-.255c0-.09.01-.182.04-.267a.65.65 0 01.14-.228.879.879 0 011.08-.242c.08.048.14.113.19.191a.613.613 0 01.06.524.544.544 0 01-.15.227.879.879 0 01-1.08.242zm-544.94 180.263a.588.588 0 00.19-.191.61.61 0 00.06-.524.544.544 0 00-.15-.227.89.89 0 00-.5-.312.878.878 0 00-.58.069.6.6 0 00-.19.192.592.592 0 00-.09.255c0 .09.01.182.04.267a.65.65 0 00.14.228c.13.157.3.267.5.311.19.045.4.02.58-.068zm-951.2 31.664a1.216 1.216 0 00.224-1.9 1.78 1.78 0 00-2.182-.473 1.22 1.22 0 00-.512 1.434c.06.173.158.331.288.461a1.778 1.778 0 002.186.478h-.004zm1268.1 391.179c.28.009.55.1.78.262.23.162.4.387.5.648.1.261.13.546.07.82-.06.273-.2.523-.4.718a1.428 1.428 0 01-2.42-1.024c0-.191.04-.379.12-.554.07-.175.18-.333.32-.466.13-.133.3-.237.47-.306.18-.07.37-.104.56-.1v.002zm268.92-241.227a.588.588 0 01-.19-.188.6.6 0 01.08-.745c.12-.155.3-.264.49-.306.2-.043.4-.018.58.071.08.047.14.112.19.188a.606.606 0 01-.08.746.868.868 0 01-1.07.24v-.006zM118.718 1081.06a.623.623 0 00.28-.44.624.624 0 00-.17-.5.847.847 0 00-.496-.31.89.89 0 00-.578.08.591.591 0 00-.189.19.56.56 0 00-.089.25.62.62 0 00.168.49c.126.15.3.26.495.31.195.04.399.02.579-.07zM1766.26 832.436c.05-.179.07-.367.04-.551a1.371 1.371 0 00-.19-.519c-.1-.158-.23-.292-.39-.395a1.273 1.273 0 00-.51-.203 1.718 1.718 0 00-2.11.626c-.05.179-.07.367-.04.552.02.185.09.362.19.52.1.158.23.293.38.396.16.103.34.171.52.201a1.73 1.73 0 002.11-.627zm57.89-291.764a.583.583 0 00-.29.445c-.01.091 0 .184.03.271.03.087.07.167.14.232l.12-.948zM1111.23 24.629a.808.808 0 01-.21-.192.777.777 0 01-.12-.537.81.81 0 01.1-.262c.1-.163.27-.279.46-.323a.74.74 0 01.76.277.78.78 0 01.11.257.89.89 0 01.01.282.807.807 0 01-.11.26.73.73 0 01-1 .237zM129.345 39.854a.591.591 0 00.28-.44.588.588 0 00-.171-.494.88.88 0 00-1.074-.234.606.606 0 00-.28.44.588.588 0 00.171.494.873.873 0 001.074.234zM1059.9 1080.02a.893.893 0 00.87-.71.61.61 0 00-.03-.27.513.513 0 00-.15-.23.513.513 0 00-.23-.15c-.09-.03-.18-.04-.27-.03a.893.893 0 00-.87.71c-.01.09 0 .18.03.27.03.09.08.17.15.23.06.07.14.12.23.15s.18.04.27.03z" fill="#fff"/></g><defs><clipPath id="clip0"><path fill="#fff" d="M0 0h1824.16v1129.81H0z"/></clipPath></defs></svg>