<svg id="Layer_1" data-name="Layer 1" xmlns="http://www.w3.org/2000/svg" width="50px" height="103px" viewBox="0 0 1.502 3.093"><title>logo</title><path d="M5.0879,5.13a.1223.1223,0,0,1-.1035-.0572l-.562-.8941h.1041a.1222.1222,0,0,1,.1043.0584l.4546.7432H5.09l.4547-.7432a.1222.1222,0,0,1,.1042-.0584h.1041l-.562.8941a.1222.1222,0,0,1-.1035.0572Z" transform="translate(-4.3771 -2.062)" style="fill:none;stroke:#ff9b00;stroke-miterlimit:10;stroke-width:0.05px"/><path d="M4.457,3.1261l1.29.8159a.0964.0964,0,0,1,.043.1l-.0142.0718-1.29-.8178a.0965.0965,0,0,1-.0429-.1Z" transform="translate(-4.3771 -2.062)" style="fill:none;stroke:#ff9b00;stroke-miterlimit:10;stroke-width:0.05px"/><path d="M5.1515,2.087a.1062.1062,0,0,1,.0888.0479l.5926.9034H5.71a.106.106,0,0,1-.09-.0492l-.4826-.7586H5.1328L4.65,2.9891a.1058.1058,0,0,1-.09.0492H4.438l.5926-.9034a.1062.1062,0,0,1,.0888-.0479Z" transform="translate(-4.3771 -2.062)" style="fill:none;stroke:#ff9b00;stroke-miterlimit:10;stroke-width:0.05px"/></svg>